<svg xmlns="http://www.w3.org/2000/svg" width="632" height="484">
 <!-- Created with Image Occlusion Enhanced -->
 <g>
  <title>Labels</title>
 </g>
 <g>
  <title>Masks</title>
  <rect id="a57986f1b50e42ac87e0099de9ff998c-ao-1" height="25.5102" width="69.38776" y="41.51019" x="124.12247" stroke="#2D2D2D" fill="#FFEBA2"/>
  <rect id="a57986f1b50e42ac87e0099de9ff998c-ao-2" height="26.53061" width="96.93878" y="55.7959" x="447.59186" stroke="#2D2D2D" fill="#FFEBA2"/>
  <rect id="a57986f1b50e42ac87e0099de9ff998c-ao-3" height="25.5102" width="38.77551" y="72.12243" x="152.6939" stroke="#2D2D2D" fill="#FFEBA2"/>
  <rect id="a57986f1b50e42ac87e0099de9ff998c-ao-4" height="20.40816" width="66.32653" y="89.46937" x="446.57145" stroke="#2D2D2D" fill="#FFEBA2"/>
  <rect id="a57986f1b50e42ac87e0099de9ff998c-ao-5" height="46.93878" width="118.36735" y="111.91835" x="76.16328" stroke="#2D2D2D" fill="#FFEBA2"/>
  <rect id="a57986f1b50e42ac87e0099de9ff998c-ao-6" height="24.4898" width="91.83674" y="164.97958" x="454.73472" stroke="#2D2D2D" fill="#FFEBA2"/>
  
  <rect id="a57986f1b50e42ac87e0099de9ff998c-ao-8" height="33.67347" width="68.36735" y="228.24489" x="452.6939" stroke="#2D2D2D" fill="#FFEBA2"/>
  <rect id="a57986f1b50e42ac87e0099de9ff998c-ao-9" height="20.40816" width="85.71429" y="234.36734" x="109.83675" stroke="#2D2D2D" fill="#FFEBA2"/>
  <rect id="a57986f1b50e42ac87e0099de9ff998c-ao-10" height="32.65306" width="72.44898" y="272.12244" x="453.71431" stroke="#2D2D2D" fill="#FFEBA2"/>
  <rect id="a57986f1b50e42ac87e0099de9ff998c-ao-11" height="24.4898" width="80.61225" y="287.42856" x="116.97961" stroke="#2D2D2D" fill="#FFEBA2"/>
  <rect id="a57986f1b50e42ac87e0099de9ff998c-ao-12" height="24.4898" width="76.53061" y="320.08162" x="450.65309" stroke="#2D2D2D" fill="#FFEBA2"/>
  <rect id="a57986f1b50e42ac87e0099de9ff998c-ao-13" height="24.4898" width="111.22449" y="319.06122" x="86.36736" stroke="#2D2D2D" fill="#FFEBA2"/>
  <rect id="a57986f1b50e42ac87e0099de9ff998c-ao-14" height="25.5102" width="111.22449" y="356.81632" x="457.79594" stroke="#2D2D2D" fill="#FFEBA2"/>
  <rect id="a57986f1b50e42ac87e0099de9ff998c-ao-15" height="23.46939" width="109.18368" y="346.61224" x="88.40818" stroke="#2D2D2D" fill="#FFEBA2"/>
  <rect id="a57986f1b50e42ac87e0099de9ff998c-ao-16" height="24.4898" width="111.22449" y="384.36734" x="444.53064" stroke="#2D2D2D" fill="#FFEBA2"/>
  <rect id="a57986f1b50e42ac87e0099de9ff998c-ao-17" height="25.5102" width="46.93878" y="365.99999" x="151.67349" stroke="#2D2D2D" fill="#FFEBA2"/>
  <rect id="a57986f1b50e42ac87e0099de9ff998c-ao-18" height="25.5102" width="77.55102" y="410.89795" x="447.59186" stroke="#2D2D2D" fill="#FFEBA2"/>
  <rect id="a57986f1b50e42ac87e0099de9ff998c-ao-19" height="32.65306" width="59.18367" y="395.59183" x="138.40818" stroke="#2D2D2D" fill="#FFEBA2"/>
  <rect id="a57986f1b50e42ac87e0099de9ff998c-ao-20" height="25.5102" width="51.02041" y="448.65305" x="349.63268" stroke="#2D2D2D" fill="#FFEBA2"/>
  <rect id="a57986f1b50e42ac87e0099de9ff998c-ao-21" height="31.63265" width="135.71429" y="423.14285" x="60.85716" stroke="#2D2D2D" fill="#FFEBA2"/>
 </g>
</svg>