<svg xmlns="http://www.w3.org/2000/svg" width="662" height="417">
 <!-- Created with Image Occlusion Enhanced -->
 <g>
  <title>Labels</title>
 </g>
 <g>
  <title>Masks</title>
  <rect id="d827cebf2f4a418198a8bc4448b9879f-ao-1" height="15.11194" width="60.44776" y="27.96269" x="264.02611" stroke="#2D2D2D" fill="#FFEBA2"/>
  <rect id="d827cebf2f4a418198a8bc4448b9879f-ao-2" height="14.27239" width="83.95522" y="58.18657" x="265.70521" stroke="#2D2D2D" fill="#FFEBA2"/>
  <rect id="d827cebf2f4a418198a8bc4448b9879f-ao-3" height="11.75373" width="74.72015" y="85.05224" x="261.50745" stroke="#2D2D2D" fill="#FFEBA2"/>
  <rect id="d827cebf2f4a418198a8bc4448b9879f-ao-4" height="11.75373" width="62.96642" y="112.75747" x="264.02611" stroke="#2D2D2D" fill="#FFEBA2"/>
  <rect id="d827cebf2f4a418198a8bc4448b9879f-ao-5" height="12.59328" width="43.65672" y="43.91418" x="263.18656" stroke="#2D2D2D" fill="#FFEBA2"/>
  <rect id="d827cebf2f4a418198a8bc4448b9879f-ao-6" height="10.91418" width="74.72015" y="73.29851" x="265.70521" stroke="#2D2D2D" fill="#FFEBA2"/>
  <rect id="d827cebf2f4a418198a8bc4448b9879f-ao-7" height="13.43284" width="59.60821" y="96.80597" x="264.02611" stroke="#2D2D2D" fill="#FFEBA2"/>
  <rect id="d827cebf2f4a418198a8bc4448b9879f-ao-8" height="19.3097" width="59.60821" y="207.62687" x="222.0485" stroke="#2D2D2D" fill="#FFEBA2"/>
  <rect id="d827cebf2f4a418198a8bc4448b9879f-ao-9" height="15.11194" width="47.01493" y="234.49254" x="217.85073" stroke="#2D2D2D" fill="#FFEBA2"/>
  <rect id="d827cebf2f4a418198a8bc4448b9879f-ao-10" height="15.11194" width="99.06717" y="263.87687" x="216.17163" stroke="#2D2D2D" fill="#FFEBA2"/>
  <rect id="d827cebf2f4a418198a8bc4448b9879f-ao-11" height="16.79104" width="98.22761" y="293.2612" x="217.01118" stroke="#2D2D2D" fill="#FFEBA2"/>
  <rect id="d827cebf2f4a418198a8bc4448b9879f-ao-12" height="20.14925" width="38.6194" y="324.32463" x="218.69029" stroke="#2D2D2D" fill="#FFEBA2"/>
  <rect id="d827cebf2f4a418198a8bc4448b9879f-ao-13" height="15.95149" width="99.90672" y="247.92538" x="215.33208" stroke="#2D2D2D" fill="#FFEBA2"/>
  <rect id="d827cebf2f4a418198a8bc4448b9879f-ao-14" height="12.59328" width="87.31343" y="280.66792" x="215.33208" stroke="#2D2D2D" fill="#FFEBA2"/>
  <rect id="d827cebf2f4a418198a8bc4448b9879f-ao-15" height="15.95149" width="120.05597" y="198.3918" x="516.73133" stroke="#2D2D2D" fill="#FFEBA2"/>
  <rect id="d827cebf2f4a418198a8bc4448b9879f-ao-16" height="19.3097" width="92.35075" y="230.29478" x="524.2873" stroke="#2D2D2D" fill="#FFEBA2"/>
  <rect id="d827cebf2f4a418198a8bc4448b9879f-ao-17" height="10.91418" width="105.78358" y="281.50747" x="516.73133" stroke="#2D2D2D" fill="#FFEBA2"/>
  <rect id="d827cebf2f4a418198a8bc4448b9879f-ao-18" height="29.38433" width="78.91791" y="297.45896" x="514.21268" stroke="#2D2D2D" fill="#FFEBA2"/>
  <rect id="d827cebf2f4a418198a8bc4448b9879f-ao-19" height="15.11194" width="42.81716" y="214.34329" x="523.44775" stroke="#2D2D2D" fill="#FFEBA2"/>
  <rect id="d827cebf2f4a418198a8bc4448b9879f-ao-20" height="15.95149" width="68.00373" y="248.76493" x="531.00372" stroke="#2D2D2D" fill="#FFEBA2"/>
  
 </g>
</svg>