<svg height="312" width="435" xmlns="http://www.w3.org/2000/svg">
 <!-- Created with Image Occlusion Enhanced -->
 <g>
  <title>Labels</title>
 </g>
 <g>
  <title>Masks</title>
  <rect fill="#FFEBA2" height="18.18182" id="eb7fb8702273472c885393146744c05d-ao-1" stroke="#2D2D2D" width="45.45455" x="68.40911" y="39.13636"/>
  <rect fill="#FFEBA2" height="17.04546" id="eb7fb8702273472c885393146744c05d-ao-2" stroke="#2D2D2D" width="105.68182" x="7.04547" y="59.59091"/>
  <rect class="qshape" fill="#FF7E7E" height="19.31818" id="eb7fb8702273472c885393146744c05d-ao-3" stroke="#2D2D2D" width="110.22728" x="3.63638" y="86.86364"/>
  <rect fill="#FFEBA2" height="18.18182" id="eb7fb8702273472c885393146744c05d-ao-4" stroke="#2D2D2D" width="87.5" x="26.36365" y="107.31818"/>
  <rect fill="#FFEBA2" height="20.45455" id="eb7fb8702273472c885393146744c05d-ao-5" stroke="#2D2D2D" width="112.5" x="310.45457" y="116.40909"/>
  <rect fill="#FFEBA2" height="14.77273" id="eb7fb8702273472c885393146744c05d-ao-6" stroke="#2D2D2D" width="56.81818" x="53.63638" y="130.04546"/>
  <rect fill="#FFEBA2" height="13.63636" id="eb7fb8702273472c885393146744c05d-ao-7" stroke="#2D2D2D" width="34.09091" x="75.22729" y="152.77273"/>
  <rect fill="#FFEBA2" height="20.45455" id="eb7fb8702273472c885393146744c05d-ao-8" stroke="#2D2D2D" width="55.68182" x="57.04547" y="166.4091"/>
  <rect fill="#FFEBA2" height="14.77273" id="eb7fb8702273472c885393146744c05d-ao-9" stroke="#2D2D2D" width="79.54546" x="32.04547" y="195.95455"/>
  
  <rect fill="#FFEBA2" height="15.90909" id="eb7fb8702273472c885393146744c05d-ao-10" stroke="#2D2D2D" width="61.36364" x="47.95456" y="217.54546"/>
  <rect fill="#FFEBA2" height="15.90909" id="eb7fb8702273472c885393146744c05d-ao-11" stroke="#2D2D2D" width="55.68182" x="183.18184" y="233.45455"/>
  <rect fill="#FFEBA2" height="14.77273" id="eb7fb8702273472c885393146744c05d-ao-12" stroke="#2D2D2D" width="143.18182" x="257.04548" y="227.77273"/>
  <rect fill="#FFEBA2" height="14.77273" id="eb7fb8702273472c885393146744c05d-ao-13" stroke="#2D2D2D" width="48.86364" x="205.90911" y="216.4091"/>
  <rect fill="#FFEBA2" height="11.36364" id="eb7fb8702273472c885393146744c05d-ao-14" stroke="#2D2D2D" width="46.59091" x="303.63639" y="180.04546"/>
  <rect fill="#FFEBA2" height="17.04546" id="eb7fb8702273472c885393146744c05d-ao-15" stroke="#2D2D2D" width="60.22727" x="304.77275" y="158.45455"/>
 </g>
</svg>